<svg xmlns="http://www.w3.org/2000/svg"
     width="16.7067in" height="16.78in"
     viewBox="0 0 5012 5034">
  <path id="Imported Path #40"
        fill="currentColor"
        d="M 2341.41,23.50
           C 2090.14,38.92 1827.21,98.50 1583.03,194.75
             1475.94,237.25 1310.10,320.58 1222.59,376.00
             1053.00,483.92 944.66,566.83 811.32,691.00
             536.30,946.83 321.29,1261.00 187.12,1603.92
             125.86,1760.58 94.61,1868.08 57.94,2045.58
             26.28,2200.17 11.69,2381.00 15.44,2568.50
             20.03,2788.08 49.61,2978.92 111.70,3195.58
             226.70,3595.58 442.97,3961.00 744.65,4265.17
             1020.08,4543.08 1370.52,4760.17 1739.29,4880.17
             1882.63,4927.25 2051.39,4966.00 2195.57,4985.17
             2378.91,5009.33 2646.42,5008.50 2833.10,4983.08
             3148.12,4939.75 3464.80,4831.83 3742.32,4672.25
             3835.24,4618.50 3975.25,4524.33 4043.59,4468.92
             4056.09,4458.50 4081.51,4438.08 4099.84,4423.08
             4271.10,4284.75 4446.94,4088.50 4584.45,3882.25
             4765.30,3611.83 4888.64,3314.33 4953.64,2993.50
             5002.39,2753.08 5014.06,2496.00 4986.97,2251.83
             4937.39,1801.42 4770.30,1378.92 4498.61,1017.67
             4356.11,827.67 4196.51,667.67 4006.92,523.50
             3850.66,404.75 3722.32,328.08 3528.97,237.25
             3470.22,209.75 3380.22,174.33 3301.05,147.67
             3227.29,122.67 3076.87,81.83 3020.61,71.00
             2988.53,65.17 2953.11,58.50 2941.44,56.00
             2778.10,24.33 2535.59,11.42 2341.41,23.50 Z
           M 2672.68,93.50
           C 2883.94,109.33 3073.53,146.83 3270.21,211.83
             3372.72,246.00 3447.30,276.42 3545.64,324.33
             3887.33,490.58 4154.84,704.75 4400.69,1008.92
             4507.78,1141.00 4617.37,1313.08 4679.04,1445.58
             4686.54,1461.42 4700.29,1490.58 4709.04,1510.17
             4729.88,1554.33 4763.63,1631.83 4771.55,1653.92
             4864.88,1911.42 4913.22,2138.50 4926.97,2385.17
             4937.39,2572.67 4929.47,2704.75 4895.30,2908.08
             4797.80,3489.33 4494.86,4005.58 4025.67,4390.58
             3886.08,4505.17 3701.48,4621.83 3543.56,4695.58
             3270.21,4823.50 3012.28,4896.00 2726.85,4925.58
             2641.01,4934.33 2408.49,4935.58 2318.49,4927.67
             2198.48,4916.83 2041.39,4890.17 1922.22,4860.17
             1644.28,4790.17 1353.85,4656.00 1120.50,4489.75
             704.23,4193.50 387.13,3776.00 223.79,3310.58
             166.28,3146.42 132.95,3011.83 107.95,2841.42
             89.20,2714.33 83.78,2623.08 86.28,2474.75
             89.20,2312.25 94.61,2256.00 125.03,2076.83
             175.03,1781.83 316.29,1434.75 490.89,1177.25
             541.72,1102.67 536.72,1109.33 572.14,1062.25
             702.15,888.92 888.41,702.25 1062.58,571.42
             1132.17,519.33 1187.18,482.25 1274.68,428.08
             1312.18,405.17 1431.77,341.00 1485.94,315.17
             1727.62,199.33 2023.89,119.75 2295.57,97.67
             2325.57,95.58 2357.24,92.67 2366.41,92.25
             2407.66,88.92 2621.84,89.75 2672.68,93.50 Z" />
  <path id="Imported Path #39"
        fill="currentColor"
        d="M 2715.18,377.25
           C 2667.26,392.25 2639.34,431.83 2639.34,483.92
             2639.34,538.08 2666.43,565.17 2756.01,599.75
             2777.68,608.08 2800.60,618.92 2806.43,623.08
             2828.10,638.50 2825.18,671.42 2801.43,681.42
             2771.43,693.50 2707.68,673.08 2670.59,638.92
             2670.59,638.92 2651.42,621.00 2651.42,621.00
             2651.42,621.00 2623.51,648.92 2623.51,648.92
             2623.51,648.92 2596.01,676.42 2596.01,676.42
             2596.01,676.42 2606.01,687.25 2606.01,687.25
             2624.76,707.25 2670.59,734.75 2703.93,746.00
             2731.43,755.17 2745.18,757.25 2781.02,757.67
             2831.02,758.08 2851.85,751.42 2876.02,726.42
             2900.19,701.83 2907.69,683.08 2908.11,647.25
             2908.11,619.33 2906.86,613.50 2895.61,595.58
             2880.19,571.00 2854.35,552.67 2809.35,534.33
             2734.35,504.33 2718.10,491.42 2724.35,467.25
             2731.01,439.33 2781.02,436.00 2826.43,460.17
             2840.60,467.67 2856.44,478.08 2861.85,483.08
             2861.85,483.08 2871.85,492.25 2871.85,492.25
             2871.85,492.25 2897.27,466.83 2897.27,466.83
             2911.44,452.67 2922.69,439.33 2922.69,436.83
             2922.69,434.75 2913.94,426.00 2903.11,417.67
             2843.52,373.08 2775.18,358.08 2715.18,377.25 Z" />
  <path id="Imported Path #38"
        fill="currentColor"
        d="M 2123.89,382.67
           C 2088.48,391.42 2051.39,412.25 2025.56,437.67
             1950.55,512.25 1950.14,638.08 2024.31,712.67
             2100.56,788.50 2237.65,787.25 2314.74,710.17
             2341.41,683.92 2356.41,657.25 2365.99,619.75
             2387.24,538.08 2350.99,449.75 2278.07,404.33
             2238.90,380.17 2172.65,371.00 2123.89,382.67 Z
           M 2209.73,463.08
           C 2271.40,485.17 2300.99,564.75 2270.99,627.67
             2239.32,694.75 2155.56,712.67 2100.56,664.33
             2062.22,630.58 2045.56,570.17 2063.47,529.75
             2081.81,488.50 2103.89,468.92 2143.90,458.50
             2168.48,452.25 2181.40,453.08 2209.73,463.08 Z" />
  <path id="Imported Path #37"
        fill="currentColor"
        d="M 3159.79,494.33
           C 3145.20,511.00 3099.37,562.25 3058.11,607.67
             2949.78,727.67 2913.52,769.33 2915.61,771.42
             2916.86,772.25 2932.27,778.50 2950.19,785.58
             2982.28,797.25 3001.86,801.00 3001.86,794.33
             3001.86,792.67 3013.53,778.50 3028.11,762.67
             3028.11,762.67 3053.95,733.92 3053.95,733.92
             3053.95,733.92 3128.95,761.00 3128.95,761.00
             3128.95,761.00 3203.96,788.08 3203.96,788.08
             3203.96,788.08 3206.87,804.33 3206.87,804.33
             3208.54,813.50 3209.79,833.08 3209.79,848.08
             3210.21,865.17 3212.29,877.25 3215.62,879.75
             3223.12,886.00 3294.38,911.00 3296.88,908.50
             3299.80,905.17 3271.46,527.25 3266.04,501.42
             3264.38,491.83 3258.96,488.50 3227.71,477.25
             3207.71,470.17 3190.21,464.33 3188.96,464.33
             3187.71,464.33 3174.37,478.08 3159.79,494.33 Z
           M 3200.62,640.17
           C 3203.12,675.17 3204.79,704.75 3203.96,705.58
             3201.04,708.08 3110.20,674.75 3110.20,671.00
             3110.20,666.83 3189.37,576.83 3193.54,576.83
             3194.79,576.83 3198.12,605.58 3200.62,640.17 Z" />
  <path id="Imported Path #36"
        fill="currentColor"
        d="M 1700.12,506.42
           C 1671.37,513.08 1625.53,538.08 1601.37,559.75
             1553.45,602.67 1536.78,643.92 1540.53,711.83
             1543.03,757.67 1551.78,786.00 1572.61,816.00
             1630.53,899.33 1728.04,920.58 1830.54,871.83
             1850.96,862.25 1868.05,849.33 1896.38,821.00
             1917.22,799.75 1935.97,777.67 1937.22,771.83
             1939.30,763.08 1932.63,743.92 1908.47,688.92
             1890.97,649.75 1876.80,616.00 1876.80,613.92
             1876.80,607.25 1870.13,609.75 1823.46,633.08
             1798.04,645.17 1765.54,660.58 1750.96,666.83
             1736.79,672.67 1724.29,678.08 1723.87,678.50
             1723.04,679.33 1726.37,686.83 1730.54,696.00
             1734.71,704.75 1740.54,719.33 1743.87,727.67
             1746.79,736.42 1750.54,743.50 1752.21,743.50
             1753.87,743.50 1770.96,736.42 1790.13,727.25
             1790.13,727.25 1825.54,711.00 1825.54,711.00
             1825.54,711.00 1836.80,733.92 1836.80,733.92
             1849.30,759.75 1848.46,763.92 1824.29,785.17
             1772.21,830.58 1702.20,829.33 1659.29,781.83
             1637.62,758.08 1627.20,735.17 1624.28,707.25
             1618.03,649.33 1649.70,603.92 1707.62,587.25
             1728.04,581.42 1736.79,581.00 1761.37,584.33
             1777.63,586.83 1791.79,588.08 1792.63,587.25
             1794.29,585.58 1813.88,518.50 1814.29,513.50
             1814.71,503.08 1734.71,498.50 1700.12,506.42 Z" />
  <path id="Imported Path #35"
        fill="currentColor"
        d="M 3547.73,664.75
           C 3402.30,679.33 3324.80,849.75 3408.55,971.42
             3433.97,1008.08 3489.39,1044.33 3541.48,1058.08
             3566.89,1064.33 3629.40,1066.42 3637.73,1061.00
             3640.23,1059.33 3649.81,1046.00 3658.98,1031.00
             3668.15,1016.00 3686.48,987.25 3699.40,966.83
             3712.32,946.42 3722.74,927.67 3722.74,925.17
             3722.74,922.67 3701.48,907.67 3676.07,891.83
             3650.23,876.00 3618.98,856.83 3606.90,848.92
             3606.90,848.92 3585.23,835.17 3585.23,835.17
             3585.23,835.17 3571.06,856.83 3571.06,856.83
             3546.48,895.58 3546.48,896.42 3556.89,903.08
             3604.81,933.08 3614.40,939.75 3614.40,943.92
             3614.40,946.42 3608.56,956.83 3601.48,967.25
             3588.56,986.00 3588.14,986.00 3569.39,983.50
             3528.14,978.08 3486.89,949.33 3470.64,916.00
             3466.05,906.83 3461.89,887.25 3461.05,871.42
             3459.39,846.00 3460.64,840.17 3472.30,816.42
             3501.47,757.25 3558.98,730.58 3615.65,750.17
             3641.90,758.92 3673.57,789.75 3687.32,819.33
             3693.57,832.67 3699.40,843.50 3701.07,843.50
             3703.57,843.50 3773.99,821.42 3776.49,819.75
             3781.49,816.42 3751.90,761.00 3733.57,741.00
             3685.23,686.42 3615.65,658.08 3547.73,664.75 Z" />
  <path id="Imported Path #34"
        fill="currentColor"
        d="M 1320.52,706.42
           C 1206.76,788.08 1143.42,836.42 1143.42,840.58
             1143.42,843.50 1154.26,860.58 1167.59,878.92
             1180.51,897.25 1225.51,961.00 1267.60,1020.58
             1309.27,1080.17 1347.18,1133.50 1351.35,1138.92
             1351.35,1138.92 1358.85,1148.92 1358.85,1148.92
             1358.85,1148.92 1414.69,1107.25 1414.69,1107.25
             1445.52,1084.33 1498.86,1045.58 1533.86,1020.58
             1533.86,1020.58 1596.78,975.58 1596.78,975.58
             1596.78,975.58 1575.95,946.00 1575.95,946.00
             1564.70,929.75 1553.86,916.83 1551.78,917.25
             1550.11,917.67 1511.36,944.75 1466.36,977.25
             1466.36,977.25 1383.85,1036.42 1383.85,1036.42
             1383.85,1036.42 1376.35,1026.42 1376.35,1026.42
             1372.19,1021.00 1361.77,1006.42 1353.43,994.33
             1338.85,973.08 1338.43,972.25 1345.93,966.42
             1350.10,963.50 1382.19,940.58 1417.19,915.58
             1452.19,891.00 1480.94,869.33 1480.94,867.25
             1480.94,865.58 1472.19,851.00 1461.77,835.17
             1461.77,835.17 1442.19,806.42 1442.19,806.42
             1442.19,806.42 1416.77,824.75 1416.77,824.75
             1403.02,835.17 1369.69,858.92 1342.60,878.08
             1342.60,878.08 1294.26,913.08 1294.26,913.08
             1294.26,913.08 1278.01,889.75 1278.01,889.75
             1248.43,848.08 1248.43,850.17 1273.43,831.83
             1285.51,823.08 1321.77,797.25 1353.85,774.75
             1385.94,752.25 1413.02,733.50 1413.44,732.67
             1416.35,730.58 1374.69,672.67 1370.52,673.08
             1368.44,673.50 1345.93,688.50 1320.52,706.42 Z" />
  <path id="Imported Path #33"
        fill="currentColor"
        d="M 3915.66,886.83
           C 3914.00,890.17 3855.66,950.17 3786.49,1020.58
             3716.90,1091.00 3660.23,1149.75 3660.23,1151.42
             3660.23,1153.08 3673.57,1167.25 3689.82,1183.08
             3689.82,1183.08 3718.99,1211.42 3718.99,1211.42
             3718.99,1211.42 3762.32,1168.50 3762.32,1168.50
             3762.32,1168.50 3805.66,1125.58 3805.66,1125.58
             3805.66,1125.58 3828.58,1145.17 3828.58,1145.17
             3848.16,1161.83 3851.49,1166.42 3849.83,1176.00
             3848.58,1182.25 3843.16,1212.67 3837.33,1243.50
             3831.49,1274.33 3826.91,1303.50 3826.91,1308.08
             3826.91,1315.17 3892.33,1388.08 3895.66,1384.33
             3896.08,1383.50 3901.91,1348.08 3908.58,1304.75
             3914.83,1261.83 3921.50,1224.75 3922.75,1222.25
             3924.83,1219.75 3929.41,1219.75 3937.75,1223.08
             3959.00,1231.42 4001.92,1229.75 4023.17,1219.75
             4091.51,1188.92 4117.76,1116.00 4084.42,1049.75
             4076.51,1034.33 3929.00,881.00 3921.91,881.00
             3920.25,881.00 3917.33,883.50 3915.66,886.83 Z
           M 3975.67,1036.42
           C 4001.08,1062.67 4010.25,1075.58 4012.75,1086.83
             4020.25,1127.67 3976.08,1159.33 3937.75,1141.42
             3920.66,1133.08 3858.58,1075.17 3861.08,1069.33
             3861.49,1067.25 3877.33,1049.33 3895.25,1029.75
             3921.08,1001.42 3929.41,994.75 3934.83,997.67
             3938.58,999.33 3956.92,1017.25 3975.67,1036.42 Z" />
  <path id="Imported Path #32"
        fill="currentColor"
        d="M 1000.08,964.33
           C 984.66,980.17 972.58,994.75 973.00,996.83
             973.83,998.92 1013.00,1036.83 1059.25,1081.42
             1106.75,1126.42 1147.59,1168.92 1152.17,1177.67
             1184.26,1240.58 1115.50,1314.75 1051.33,1286.42
             1032.17,1277.67 1010.50,1258.92 919.24,1173.08
             888.41,1144.33 862.16,1120.17 860.49,1119.33
             858.82,1118.92 845.49,1131.42 831.32,1147.67
             831.32,1147.67 805.07,1177.25 805.07,1177.25
             805.07,1177.25 815.49,1191.00 815.49,1191.00
             830.49,1210.17 956.75,1330.17 979.25,1346.00
             1013.42,1370.58 1038.00,1378.92 1074.67,1378.50
             1105.50,1378.50 1110.50,1377.25 1138.84,1362.25
             1179.67,1340.58 1208.84,1311.42 1227.59,1273.92
             1246.35,1236.42 1250.51,1208.08 1242.18,1175.17
             1229.68,1127.25 1206.34,1099.75 1078.84,982.25
             1053.83,959.33 1032.17,938.92 1030.50,937.67
             1029.25,936.42 1015.50,948.50 1000.08,964.33 Z" />
  <path id="Imported Path #31"
        fill="currentColor"
        d="M 2467.66,1249.33
           C 2433.50,1277.67 2396.41,1331.83 2379.74,1378.50
             2368.91,1407.25 2366.83,1420.17 2365.16,1464.33
             2363.49,1518.50 2365.16,1531.00 2393.49,1664.33
             2398.08,1686.00 2401.83,1717.25 2401.83,1733.50
             2401.83,1808.50 2362.24,1894.75 2292.24,1970.58
             2292.24,1970.58 2265.57,1999.75 2265.57,1999.75
             2265.57,1999.75 2263.49,1947.67 2263.49,1947.67
             2259.74,1869.33 2240.15,1816.00 2200.15,1776.00
             2183.06,1758.50 2151.81,1739.33 2131.81,1733.08
             2122.64,1730.58 2122.23,1731.00 2127.23,1739.75
             2137.65,1759.33 2143.48,1792.67 2143.48,1832.67
             2143.48,1900.17 2130.15,1937.67 2069.31,2038.92
             1984.30,2181.42 1958.89,2250.17 1953.05,2351.83
             1948.89,2425.17 1965.97,2513.92 1998.05,2584.33
             2036.81,2670.17 2116.39,2755.17 2208.48,2809.75
             2233.48,2824.33 2313.91,2860.17 2321.82,2860.17
             2323.07,2860.17 2319.32,2855.17 2313.49,2848.50
             2295.57,2829.33 2268.90,2787.67 2253.49,2753.92
             2210.98,2661.42 2206.40,2553.92 2240.98,2453.08
             2273.07,2359.33 2340.99,2262.25 2428.50,2184.33
             2469.75,2148.08 2480.58,2141.00 2474.75,2154.75
             2463.50,2181.83 2455.16,2226.42 2453.08,2270.58
             2449.33,2358.92 2465.16,2404.33 2531.00,2491.42
             2583.50,2561.42 2594.76,2584.75 2596.84,2631.42
             2598.09,2656.83 2600.17,2668.50 2603.92,2668.50
             2612.67,2668.50 2657.68,2636.83 2673.09,2619.75
             2704.76,2584.75 2722.68,2538.92 2722.68,2493.08
             2722.68,2493.08 2722.68,2470.58 2722.68,2470.58
             2722.68,2470.58 2731.43,2481.00 2731.43,2481.00
             2786.43,2548.08 2806.85,2631.00 2786.85,2707.67
             2777.68,2743.50 2751.43,2792.25 2722.26,2826.42
             2708.93,2842.67 2698.93,2856.00 2700.59,2856.00
             2707.68,2856.00 2751.85,2837.67 2786.02,2820.58
             2904.77,2761.00 2989.36,2670.17 3032.28,2555.58
             3081.45,2424.33 3066.87,2293.92 2985.19,2130.58
             2940.61,2042.25 2933.94,2019.33 2933.52,1955.17
             2933.11,1925.58 2931.86,1901.83 2930.61,1901.83
             2923.52,1901.83 2889.36,1941.83 2878.10,1963.08
             2856.02,2004.75 2851.02,2030.17 2848.10,2114.33
             2845.60,2182.67 2843.94,2193.50 2836.02,2209.33
             2809.77,2259.33 2763.93,2268.92 2730.18,2231.00
             2705.59,2203.50 2702.68,2161.42 2721.01,2101.83
             2751.01,2003.50 2755.60,1986.00 2760.60,1951.42
             2776.43,1833.08 2739.76,1725.58 2641.42,1606.00
             2600.59,1556.00 2549.75,1487.67 2537.25,1466.42
             2516.42,1431.00 2494.75,1375.58 2489.33,1343.92
             2483.92,1312.67 2486.00,1273.92 2493.92,1248.50
             2496.42,1241.00 2497.67,1233.08 2496.83,1231.00
             2496.00,1228.50 2483.08,1236.83 2467.66,1249.33 Z" />
  <path id="Imported Path #30"
        fill="currentColor"
        d="M 715.90,1301.00
           C 711.31,1309.33 691.73,1341.83 672.56,1372.67
             618.39,1460.58 580.89,1522.67 579.64,1526.83
             578.81,1530.17 885.91,1722.67 897.58,1725.58
             903.41,1727.25 907.16,1721.83 938.83,1668.50
             938.83,1668.50 947.16,1653.92 947.16,1653.92
             947.16,1653.92 884.66,1616.42 884.66,1616.42
             850.49,1596.00 822.99,1578.08 823.40,1576.83
             824.24,1575.58 845.07,1541.00 870.07,1500.17
             894.66,1459.75 914.66,1426.00 913.83,1425.17
             909.66,1421.83 852.16,1389.33 850.49,1389.33
             849.24,1389.33 828.40,1422.25 803.82,1462.25
             779.24,1502.25 757.57,1535.17 755.90,1535.17
             752.15,1535.17 715.06,1513.50 697.98,1501.42
             697.98,1501.42 688.81,1494.33 688.81,1494.33
             688.81,1494.33 739.23,1410.17 739.23,1410.17
             767.15,1363.92 789.24,1325.58 788.40,1325.17
             780.07,1318.50 733.82,1288.50 730.07,1287.25
             727.15,1286.00 720.90,1291.83 715.90,1301.00 Z" />
  <path id="Imported Path #29"
        fill="currentColor"
        d="M 4260.27,1322.67
           C 4240.68,1326.42 4193.18,1336.00 4154.01,1343.08
             4074.01,1358.08 3915.25,1389.33 3906.91,1391.83
             3901.50,1393.50 3946.08,1464.33 3952.33,1464.33
             3954.42,1464.33 3974.00,1460.17 3996.08,1455.58
             4018.17,1450.58 4037.34,1448.08 4039.00,1450.17
             4056.92,1475.17 4122.76,1577.67 4122.76,1581.00
             4122.76,1583.50 4112.34,1600.58 4099.84,1619.75
             4087.34,1638.50 4076.92,1656.42 4076.92,1659.33
             4076.92,1667.25 4124.01,1736.00 4126.93,1732.25
             4128.59,1730.58 4145.68,1704.33 4164.43,1674.75
             4183.60,1644.75 4233.60,1568.50 4275.68,1504.75
             4317.77,1441.42 4351.94,1387.25 4351.94,1384.33
             4351.94,1375.58 4308.19,1314.75 4301.94,1314.75
             4298.60,1315.17 4279.85,1318.50 4260.27,1322.67 Z
           M 4243.60,1407.67
           C 4243.60,1410.58 4181.10,1503.08 4175.26,1509.33
             4170.68,1513.92 4165.26,1507.25 4144.43,1474.75
             4130.26,1452.67 4118.59,1433.92 4118.59,1433.08
             4118.59,1431.83 4145.68,1425.17 4212.35,1410.58
             4231.51,1406.42 4243.60,1405.17 4243.60,1407.67 Z" />
  <path id="Imported Path #28"
        fill="currentColor"
        d="M 4484.45,1645.58
           C 4480.70,1649.33 4179.43,1763.08 4151.09,1771.42
             4146.93,1772.67 4143.59,1775.17 4143.59,1776.83
             4143.59,1783.50 4194.43,1916.42 4204.43,1936.83
             4238.60,2005.17 4292.77,2043.50 4359.86,2046.83
             4418.19,2050.17 4466.11,2033.92 4506.95,1997.67
             4530.70,1977.25 4554.03,1932.25 4560.70,1895.58
             4569.03,1849.33 4561.53,1813.92 4520.70,1706.00
             4499.45,1650.58 4491.95,1638.08 4484.45,1645.58 Z
           M 4470.69,1785.58
           C 4486.53,1826.00 4488.20,1873.50 4474.03,1900.17
             4438.19,1967.67 4330.69,1982.25 4287.35,1925.17
             4276.52,1911.00 4243.60,1841.42 4243.60,1832.67
             4243.60,1827.25 4244.85,1826.42 4337.35,1793.08
             4376.52,1779.33 4417.78,1764.33 4429.03,1759.75
             4440.69,1755.58 4451.94,1752.67 4454.03,1753.50
             4456.53,1753.92 4463.61,1768.50 4470.69,1785.58 Z" />
  <path id="Imported Path #27"
        fill="currentColor"
        d="M 731.73,1933.92
           C 726.73,1949.75 716.31,1986.42 707.56,2016.42
             699.23,2046.00 691.73,2071.42 690.90,2072.25
             690.06,2073.08 670.06,2068.50 646.73,2062.25
             568.39,2041.42 428.80,2002.25 416.30,1997.67
             409.63,1995.58 402.96,1995.17 401.30,1996.83
             398.38,2000.17 380.88,2063.92 380.88,2071.42
             380.88,2073.92 402.13,2081.83 427.97,2089.33
             527.14,2117.25 680.06,2159.75 704.65,2166.00
             718.82,2169.75 733.40,2173.92 736.73,2175.17
             741.32,2176.83 744.23,2172.67 747.57,2159.33
             756.32,2126.42 793.82,1996.00 804.65,1961.00
             810.49,1942.25 814.65,1925.58 813.82,1924.75
             811.74,1923.08 749.23,1906.00 743.82,1906.00
             741.73,1906.00 736.32,1918.50 731.73,1933.92 Z" />
  <path id="Imported Path #26"
        fill="currentColor"
        d="M 4433.61,2123.08
           C 4352.35,2142.25 4294.02,2211.83 4286.93,2298.92
             4282.77,2349.33 4299.02,2406.00 4329.44,2445.58
             4361.52,2487.67 4421.11,2515.58 4479.03,2515.58
             4566.95,2515.58 4635.29,2468.92 4666.96,2387.25
             4678.62,2356.83 4677.79,2284.33 4664.87,2250.17
             4634.87,2166.83 4566.12,2117.67 4481.53,2118.92
             4464.03,2119.33 4442.78,2121.00 4433.61,2123.08 Z
           M 4534.03,2214.75
           C 4569.03,2231.42 4597.79,2278.92 4597.79,2318.92
             4597.79,2340.58 4584.87,2371.83 4568.62,2390.17
             4544.87,2417.67 4519.86,2428.50 4481.11,2428.50
             4456.94,2428.50 4445.28,2426.00 4429.86,2418.92
             4391.94,2400.58 4364.44,2356.42 4364.44,2314.75
             4364.44,2296.00 4384.44,2253.92 4400.27,2237.67
             4412.36,2226.00 4436.53,2211.83 4456.11,2205.58
             4472.36,2200.17 4514.03,2205.17 4534.03,2214.75 Z" />
  <path id="Imported Path #25"
        fill="currentColor"
        d="M 348.38,2254.33
           C 340.88,2334.75 330.46,2477.67 331.71,2478.92
             332.54,2479.75 408.80,2486.83 501.72,2495.17
             594.64,2503.50 677.98,2511.42 687.15,2512.67
             687.15,2512.67 704.23,2515.17 704.23,2515.17
             704.23,2515.17 716.31,2377.25 716.31,2377.25
             722.98,2301.42 727.57,2238.50 726.32,2237.25
             724.23,2235.58 659.23,2227.25 657.14,2228.50
             656.73,2228.92 651.73,2272.67 646.31,2326.00
             640.89,2379.33 635.48,2423.50 634.64,2424.33
             632.98,2426.00 568.81,2419.33 561.72,2416.83
             557.97,2415.58 561.72,2344.75 569.64,2266.00
             569.64,2266.00 571.31,2248.92 571.31,2248.92
             571.31,2248.92 535.47,2244.33 535.47,2244.33
             515.89,2242.25 499.22,2240.58 499.22,2240.58
             498.80,2241.00 495.05,2279.75 490.89,2326.42
             490.89,2326.42 483.39,2411.00 483.39,2411.00
             483.39,2411.00 458.80,2408.50 458.80,2408.50
             445.05,2407.25 428.38,2406.00 421.71,2406.00
             421.71,2406.00 409.63,2406.00 409.63,2406.00
             409.63,2406.00 411.71,2383.92 411.71,2383.92
             417.55,2328.08 427.13,2209.33 425.88,2208.08
             425.05,2207.25 408.38,2205.17 388.80,2203.50
             388.80,2203.50 352.96,2201.00 352.96,2201.00
             352.96,2201.00 348.38,2254.33 348.38,2254.33 Z" />
  <path id="Imported Path #24"
        fill="currentColor"
        d="M 1870.55,2526.00
           C 1846.80,2531.00 1759.29,2561.83 1725.54,2577.25
             1686.79,2594.75 1644.28,2620.17 1618.87,2641.83
             1587.61,2668.50 1562.20,2714.33 1559.28,2749.33
             1559.28,2749.33 1558.03,2761.83 1558.03,2761.83
             1558.03,2761.83 1533.03,2759.75 1533.03,2759.75
             1519.28,2758.92 1484.69,2758.08 1455.94,2758.08
             1404.69,2758.08 1403.02,2758.50 1374.69,2772.25
             1339.68,2789.75 1308.85,2819.75 1293.85,2851.83
             1284.68,2871.00 1283.01,2880.58 1283.01,2912.25
             1283.01,2944.75 1284.68,2953.08 1294.26,2972.67
             1308.85,3001.83 1341.35,3034.75 1371.77,3051.00
             1384.69,3058.08 1414.27,3070.58 1436.77,3078.50
             1489.69,3097.67 1513.86,3111.42 1537.61,3134.33
             1563.45,3159.75 1570.53,3176.00 1584.70,3238.08
             1608.87,3345.17 1640.12,3422.67 1688.04,3495.58
             1815.54,3689.33 1993.05,3793.50 2262.24,3832.67
             2349.74,3845.17 2404.74,3848.92 2513.50,3848.50
             2619.76,3848.50 2665.18,3845.58 2753.93,3832.67
             3018.95,3793.50 3197.29,3690.58 3322.71,3504.33
             3367.72,3437.25 3411.47,3332.67 3428.97,3249.75
             3445.64,3171.42 3455.22,3150.58 3486.06,3126.00
             3513.56,3103.92 3529.39,3095.58 3576.89,3078.92
             3633.98,3058.92 3661.07,3043.08 3689.82,3013.92
             3759.82,2942.67 3742.74,2835.17 3652.73,2779.33
             3621.90,2760.17 3590.23,2754.75 3528.97,2757.67
             3499.39,2758.92 3471.05,2761.42 3466.05,2762.67
             3458.14,2764.75 3456.89,2762.67 3454.39,2744.75
             3450.22,2713.50 3430.64,2677.67 3403.55,2651.42
             3371.47,2620.58 3347.71,2605.17 3296.46,2581.00
             3249.38,2558.92 3141.04,2521.42 3134.79,2525.17
             3132.70,2526.42 3131.04,2531.42 3131.04,2536.42
             3131.04,2543.92 3114.37,2595.58 3104.37,2618.92
             3101.87,2624.33 3108.95,2627.67 3140.20,2636.83
             3244.38,2668.08 3323.96,2710.17 3341.46,2743.50
             3364.38,2787.67 3245.63,2849.75 3046.03,2897.67
             2760.60,2966.00 2325.99,2970.17 2014.31,2907.25
             1855.96,2875.58 1724.71,2825.58 1685.12,2782.25
             1663.87,2759.75 1663.45,2748.08 1683.45,2728.92
             1715.12,2698.08 1777.21,2668.08 1868.46,2638.92
             1892.63,2631.42 1913.05,2624.75 1913.47,2624.33
             1914.30,2623.50 1910.55,2611.42 1904.72,2596.83
             1898.88,2582.25 1891.80,2561.00 1888.88,2549.75
             1883.05,2525.58 1881.80,2523.50 1870.55,2526.00 Z
           M 1524.69,2869.75
           C 1524.69,2869.75 1553.86,2874.75 1553.86,2874.75
             1553.86,2874.75 1555.11,2942.67 1555.11,2942.67
             1555.53,2979.75 1555.53,3010.17 1554.28,3010.17
             1552.20,3010.17 1526.78,2999.75 1499.69,2987.67
             1488.44,2982.25 1465.94,2973.08 1449.69,2966.42
             1410.52,2950.17 1403.44,2945.58 1395.94,2928.92
             1386.77,2909.75 1394.27,2887.25 1413.85,2873.92
             1425.94,2866.00 1433.44,2864.33 1461.77,2864.75
             1480.53,2864.75 1508.86,2867.25 1524.69,2869.75 Z
           M 3597.73,2871.00
           C 3612.31,2879.75 3622.73,2897.67 3622.73,2913.50
             3622.73,2934.33 3606.06,2949.33 3565.23,2965.58
             3545.23,2973.50 3514.39,2986.83 3496.47,2995.17
             3478.97,3003.50 3462.72,3010.17 3460.64,3010.17
             3458.55,3010.17 3457.30,2979.75 3457.72,2942.25
             3457.72,2942.25 3458.14,2874.75 3458.14,2874.75
             3458.14,2874.75 3483.14,2870.17 3483.14,2870.17
             3523.14,2862.25 3583.98,2863.08 3597.73,2871.00 Z
           M 1814.71,2965.58
           C 2090.14,3056.42 2521.00,3084.75 2881.02,3035.17
             3061.03,3010.58 3206.04,2973.08 3301.88,2925.58
             3326.05,2913.50 3347.30,2903.08 3349.38,2902.25
             3353.96,2900.58 3349.38,3047.25 3343.55,3105.58
             3334.38,3191.00 3319.80,3256.42 3295.63,3318.92
             3223.54,3506.00 3096.03,3624.33 2895.61,3691.42
             2789.77,3726.83 2677.26,3741.00 2506.00,3741.00
             2331.82,3741.00 2238.48,3729.33 2124.31,3693.08
             1895.13,3620.17 1747.62,3459.75 1691.79,3222.67
             1675.12,3151.83 1668.04,3088.92 1665.54,2992.25
             1665.54,2992.25 1663.04,2901.83 1663.04,2901.83
             1663.04,2901.83 1710.54,2924.33 1710.54,2924.33
             1736.79,2936.83 1783.46,2955.58 1814.71,2965.58 Z" />
  <path id="Imported Path #23"
        fill="currentColor"
        d="M 1785.96,3081.83
           C 1779.29,3088.50 1779.71,3103.92 1787.21,3151.83
             1799.71,3231.42 1816.79,3286.83 1849.71,3352.67
             1900.55,3455.17 1985.55,3540.17 2082.23,3585.58
             2109.31,3598.08 2110.98,3598.50 2118.48,3591.42
             2133.90,3577.67 2126.40,3559.75 2097.64,3538.92
             2065.56,3515.58 2011.39,3456.83 1983.47,3415.17
             1925.13,3327.25 1902.22,3266.00 1872.63,3117.67
             1872.63,3117.67 1868.05,3093.50 1868.05,3093.50
             1868.05,3093.50 1839.71,3085.17 1839.71,3085.17
             1807.21,3075.58 1793.04,3074.75 1785.96,3081.83 Z" />
  <path id="Imported Path #22"
        fill="currentColor"
        d="M 4479.86,3031.00
           C 4418.61,3039.33 4367.77,3047.25 4366.94,3048.08
             4366.11,3048.92 4362.77,3058.50 4359.02,3069.33
             4352.77,3088.08 4353.19,3088.92 4361.52,3096.42
             4369.86,3103.92 4495.28,3201.00 4531.95,3228.50
             4531.95,3228.50 4547.78,3240.17 4547.78,3240.17
             4547.78,3240.17 4551.53,3230.58 4551.53,3230.58
             4562.78,3199.75 4561.95,3195.58 4540.28,3177.67
             4540.28,3177.67 4519.86,3160.17 4519.86,3160.17
             4519.86,3160.17 4527.36,3132.25 4527.36,3132.25
             4531.53,3116.42 4536.95,3096.00 4539.45,3086.00
             4543.20,3071.00 4545.28,3068.50 4555.28,3068.50
             4561.53,3068.50 4573.20,3067.25 4581.95,3066.00
             4596.54,3063.50 4597.37,3062.25 4603.20,3038.92
             4609.45,3014.75 4609.45,3014.33 4600.29,3014.75
             4595.70,3014.75 4541.12,3022.25 4479.86,3031.00 Z
           M 4490.28,3103.92
           C 4486.53,3118.92 4482.78,3131.00 4481.53,3131.00
             4479.86,3131.00 4465.28,3121.00 4448.61,3108.50
             4448.61,3108.50 4417.78,3085.58 4417.78,3085.58
             4417.78,3085.58 4431.94,3083.50 4431.94,3083.50
             4451.94,3080.17 4468.61,3078.08 4483.61,3077.25
             4483.61,3077.25 4496.53,3076.83 4496.53,3076.83
             4496.53,3076.83 4490.28,3103.92 4490.28,3103.92 Z" />
  <path id="Imported Path #21"
        fill="currentColor"
        d="M 537.14,3045.58
           C 535.05,3046.42 525.47,3049.33 515.89,3051.42
             490.89,3058.08 462.13,3082.67 449.63,3108.08
             429.63,3148.08 437.97,3207.25 467.55,3238.08
             490.05,3261.00 514.22,3274.75 514.22,3264.33
             514.22,3261.83 517.55,3252.25 522.14,3243.50
             522.14,3243.50 530.05,3227.25 530.05,3227.25
             530.05,3227.25 516.30,3218.08 516.30,3218.08
             492.97,3201.83 483.80,3184.33 485.89,3158.92
             487.97,3131.00 497.97,3117.67 524.22,3103.92
             550.06,3091.00 565.47,3090.58 589.22,3102.67
             621.73,3119.33 632.98,3151.42 620.48,3192.67
             617.98,3200.58 620.06,3203.08 637.14,3210.58
             659.65,3220.58 660.90,3219.75 668.81,3191.42
             682.56,3141.42 655.06,3080.17 607.98,3056.42
             590.47,3047.67 547.56,3041.00 537.14,3045.58 Z" />
  <path id="Imported Path #20"
        fill="currentColor"
        d="M 4316.52,3231.83
           C 4260.68,3296.00 4278.18,3377.67 4347.35,3377.67
             4373.61,3377.67 4384.86,3369.75 4412.36,3333.08
             4435.69,3301.00 4446.11,3294.75 4459.86,3304.75
             4478.20,3317.67 4466.94,3351.00 4434.44,3378.50
             4434.44,3378.50 4417.78,3392.67 4417.78,3392.67
             4417.78,3392.67 4429.03,3411.83 4429.03,3411.83
             4429.03,3411.83 4440.28,3431.00 4440.28,3431.00
             4440.28,3431.00 4459.03,3417.25 4459.03,3417.25
             4494.86,3391.83 4516.95,3347.25 4513.61,3309.33
             4509.86,3273.92 4484.03,3250.58 4447.78,3250.17
             4424.44,3249.75 4406.52,3260.58 4385.27,3288.50
             4377.36,3298.92 4365.69,3313.08 4359.02,3319.75
             4348.60,3331.00 4346.94,3331.42 4338.19,3325.58
             4319.44,3313.50 4325.69,3286.42 4352.77,3262.25
             4352.77,3262.25 4369.02,3247.25 4369.02,3247.25
             4369.02,3247.25 4356.11,3231.00 4356.11,3231.00
             4348.60,3221.83 4340.27,3214.33 4337.35,3214.33
             4334.44,3214.33 4324.85,3222.25 4316.52,3231.83 Z" />
  <path id="Imported Path #19"
        fill="currentColor"
        d="M 599.23,3277.25
           C 551.72,3295.17 524.64,3334.75 525.05,3385.17
             525.47,3429.33 551.31,3471.83 590.89,3492.67
             608.39,3501.83 617.56,3503.92 643.39,3503.92
             670.90,3503.92 677.98,3501.83 697.56,3491.00
             725.48,3475.17 745.48,3450.58 754.23,3419.75
             762.57,3391.00 759.65,3368.92 742.98,3335.58
             714.65,3278.50 656.31,3255.17 599.23,3277.25 Z
           M 680.48,3329.75
           C 718.40,3358.08 720.48,3406.83 685.06,3436.83
             655.48,3461.42 618.39,3461.42 592.97,3435.58
             571.72,3414.33 565.47,3390.17 574.64,3365.58
             582.14,3346.83 600.89,3328.92 621.31,3322.67
             638.81,3316.83 667.98,3320.58 680.48,3329.75 Z" />
  <path id="Imported Path #18"
        fill="currentColor"
        d="M 4206.93,3456.83
           C 4197.76,3468.92 4189.43,3489.75 4191.93,3494.75
             4193.60,3497.67 4218.60,3531.42 4247.77,3570.58
             4276.52,3609.33 4307.35,3651.42 4316.10,3663.50
             4324.85,3675.17 4333.60,3683.92 4335.69,3682.67
             4337.77,3681.42 4344.44,3671.00 4350.27,3659.33
             4350.27,3659.33 4360.69,3638.50 4360.69,3638.50
             4360.69,3638.50 4343.60,3618.08 4343.60,3618.08
             4343.60,3618.08 4326.52,3598.08 4326.52,3598.08
             4326.52,3598.08 4350.69,3556.42 4350.69,3556.42
             4372.36,3519.33 4376.11,3515.17 4385.27,3516.42
             4429.03,3523.08 4425.69,3523.92 4439.44,3500.17
             4446.11,3487.67 4451.94,3476.83 4451.94,3476.00
             4451.94,3474.75 4429.03,3471.83 4401.11,3468.92
             4372.77,3466.00 4322.77,3461.00 4289.85,3457.67
             4216.93,3450.58 4212.35,3450.58 4206.93,3456.83 Z
           M 4317.77,3508.50
           C 4317.77,3508.50 4326.94,3510.17 4326.94,3510.17
             4326.94,3510.17 4314.44,3532.25 4314.44,3532.25
             4307.77,3543.92 4300.27,3554.33 4298.60,3555.17
             4295.27,3556.00 4251.93,3505.17 4251.93,3500.58
             4251.93,3499.33 4299.44,3505.17 4317.77,3508.50 Z" />
  <path id="Imported Path #17"
        fill="currentColor"
        d="M 738.82,3520.17
           C 686.31,3540.17 659.23,3577.25 659.23,3629.33
             658.81,3675.17 685.06,3718.08 723.82,3736.83
             758.40,3753.50 760.48,3753.08 766.73,3728.92
             774.23,3701.83 774.23,3703.08 761.32,3700.58
             731.73,3694.33 705.90,3663.92 705.90,3635.58
             705.90,3584.33 765.07,3548.08 810.07,3572.25
             828.40,3581.83 843.41,3609.75 843.41,3633.50
             843.41,3653.50 846.74,3656.00 875.49,3656.00
             875.49,3656.00 894.24,3656.00 894.24,3656.00
             894.24,3656.00 892.58,3629.75 892.58,3629.75
             888.41,3565.58 842.99,3518.92 781.32,3516.00
             764.23,3515.17 747.98,3516.83 738.82,3520.17 Z" />
  <path id="Imported Path #16"
        fill="currentColor"
        d="M 4126.93,3620.58
           C 4119.01,3624.33 4106.09,3633.08 4098.59,3640.58
             4078.17,3659.75 4025.25,3735.58 4029.84,3738.92
             4037.75,3744.33 4142.34,3825.58 4166.51,3844.75
             4204.01,3875.17 4202.76,3874.75 4217.76,3853.50
             4225.26,3843.50 4231.10,3833.50 4231.10,3831.83
             4231.10,3830.17 4219.01,3819.75 4204.01,3808.92
             4189.01,3797.67 4176.93,3787.25 4176.93,3785.58
             4176.93,3783.50 4180.68,3777.25 4185.68,3771.00
             4194.01,3760.58 4195.68,3760.17 4239.43,3760.17
             4239.43,3760.17 4284.43,3760.17 4284.43,3760.17
             4284.43,3760.17 4301.52,3737.25 4301.52,3737.25
             4301.52,3737.25 4319.02,3714.33 4319.02,3714.33
             4319.02,3714.33 4282.35,3713.92 4282.35,3713.92
             4218.60,3712.67 4224.85,3715.17 4224.01,3690.17
             4222.35,3638.92 4169.84,3601.42 4126.93,3620.58 Z
           M 4170.26,3676.83
           C 4174.43,3681.00 4178.18,3689.33 4178.18,3695.17
             4178.18,3705.17 4164.43,3731.42 4148.59,3751.42
             4148.59,3751.42 4140.68,3761.42 4140.68,3761.42
             4140.68,3761.42 4114.84,3741.83 4114.84,3741.83
             4114.84,3741.83 4089.42,3722.25 4089.42,3722.25
             4089.42,3722.25 4109.01,3696.83 4109.01,3696.83
             4135.68,3663.08 4150.68,3658.08 4170.26,3676.83 Z" />
  <path id="Imported Path #15"
        fill="currentColor"
        d="M 901.74,3704.75
           C 880.07,3721.83 841.32,3751.42 815.49,3771.00
             789.65,3790.17 767.98,3807.67 766.73,3809.33
             765.90,3811.00 771.73,3820.17 780.07,3829.75
             780.07,3829.75 795.49,3847.67 795.49,3847.67
             795.49,3847.67 884.24,3780.58 884.24,3780.58
             884.24,3780.58 973.00,3713.92 973.00,3713.92
             973.00,3713.92 959.66,3696.42 959.66,3696.42
             952.16,3686.83 945.08,3677.67 943.83,3676.42
             942.58,3674.75 923.41,3687.67 901.74,3704.75 Z" />
  <path id="Imported Path #14"
        fill="currentColor"
        d="M 951.33,3802.25
           C 925.08,3825.17 889.24,3856.42 871.74,3871.83
             854.24,3887.25 839.66,3901.83 839.66,3903.92
             839.24,3906.42 846.32,3915.58 855.07,3923.92
             855.07,3923.92 870.49,3939.33 870.49,3939.33
             870.49,3939.33 920.08,3895.17 920.08,3895.17
             947.16,3871.42 970.08,3852.25 970.91,3853.08
             971.75,3853.92 968.00,3879.75 962.58,3910.58
             942.99,4017.67 942.99,4018.50 955.50,4033.92
             961.33,4041.42 968.41,4047.67 970.91,4047.67
             975.08,4047.67 1049.25,3982.25 1111.34,3923.50
             1111.34,3923.50 1135.09,3901.00 1135.09,3901.00
             1135.09,3901.00 1118.84,3883.92 1118.84,3883.92
             1118.84,3883.92 1102.17,3867.25 1102.17,3867.25
             1102.17,3867.25 1084.25,3883.08 1084.25,3883.08
             1074.25,3891.83 1052.58,3911.83 1035.92,3927.67
             1018.83,3943.92 1004.66,3956.00 1003.83,3955.17
             1003.00,3954.75 1009.25,3916.83 1017.58,3871.42
             1017.58,3871.42 1032.58,3789.33 1032.58,3789.33
             1032.58,3789.33 1018.42,3774.75 1018.42,3774.75
             1010.50,3766.83 1003.00,3760.17 1001.33,3760.17
             1000.08,3760.17 977.16,3778.92 951.33,3802.25 Z" />
  <path id="Imported Path #13"
        fill="currentColor"
        d="M 3987.33,3798.92
           C 3970.25,3803.08 3946.08,3825.17 3898.58,3880.17
             3898.58,3880.17 3876.91,3905.17 3876.91,3905.17
             3876.91,3905.17 3936.08,3960.58 3936.08,3960.58
             3968.58,3991.42 4004.84,4025.17 4016.50,4036.00
             4016.50,4036.00 4037.75,4055.58 4037.75,4055.58
             4037.75,4055.58 4064.84,4027.67 4064.84,4027.67
             4138.18,3952.25 4149.43,3933.08 4139.84,3901.42
             4133.18,3878.92 4109.84,3860.17 4089.01,3860.17
             4079.84,3860.17 4068.59,3862.25 4064.01,3864.33
             4056.92,3868.50 4056.09,3867.25 4056.09,3853.92
             4056.09,3815.17 4024.42,3790.17 3987.33,3798.92 Z
           M 4013.59,3852.67
           C 4023.59,3862.67 4019.00,3879.33 4001.08,3900.17
             3983.17,3920.58 3976.50,3926.83 3972.75,3926.42
             3971.50,3926.42 3963.58,3920.17 3954.83,3912.67
             3954.83,3912.67 3939.00,3898.50 3939.00,3898.50
             3939.00,3898.50 3962.75,3873.08 3962.75,3873.08
             3986.92,3847.25 4001.92,3841.00 4013.59,3852.67 Z
           M 4085.26,3906.00
           C 4099.42,3920.17 4095.67,3931.83 4066.92,3962.67
             4066.92,3962.67 4039.84,3991.42 4039.84,3991.42
             4039.84,3991.42 4021.92,3973.50 4021.92,3973.50
             4021.92,3973.50 4004.00,3955.58 4004.00,3955.58
             4004.00,3955.58 4033.59,3926.83 4033.59,3926.83
             4050.25,3910.58 4066.51,3897.67 4070.26,3897.67
             4074.01,3897.67 4080.67,3901.42 4085.26,3906.00 Z" />
  <path id="Imported Path #12"
        fill="currentColor"
        d="M 1110.50,4037.67
           C 1052.17,4066.00 1006.33,4091.00 1008.41,4092.67
             1010.50,4094.33 1018.83,4101.83 1027.17,4109.33
             1027.17,4109.33 1042.58,4123.50 1042.58,4123.50
             1042.58,4123.50 1063.42,4112.67 1063.42,4112.67
             1075.09,4106.83 1087.17,4101.83 1090.50,4101.83
             1095.09,4101.83 1116.34,4118.92 1152.59,4151.83
             1152.59,4151.83 1163.84,4162.25 1163.84,4162.25
             1163.84,4162.25 1156.34,4186.00 1156.34,4186.00
             1156.34,4186.00 1148.42,4209.75 1148.42,4209.75
             1148.42,4209.75 1169.26,4228.92 1169.26,4228.92
             1180.92,4239.75 1190.09,4245.58 1190.93,4242.25
             1191.76,4239.75 1202.18,4203.50 1214.26,4162.25
             1226.34,4121.00 1240.93,4070.58 1246.76,4050.17
             1246.76,4050.17 1257.60,4013.08 1257.60,4013.08
             1257.60,4013.08 1242.18,3999.33 1242.18,3999.33
             1233.84,3991.42 1224.68,3985.17 1221.76,3985.17
             1218.84,3985.58 1168.84,4008.92 1110.50,4037.67 Z
           M 1190.93,4080.17
           C 1185.09,4098.92 1179.26,4114.33 1177.59,4114.33
             1175.92,4113.92 1165.51,4105.58 1154.26,4095.58
             1154.26,4095.58 1133.84,4077.67 1133.84,4077.67
             1133.84,4077.67 1152.17,4068.08 1152.17,4068.08
             1184.26,4051.42 1199.68,4044.33 1200.51,4045.17
             1200.93,4045.58 1196.76,4061.42 1190.93,4080.17 Z" />
  <path id="Imported Path #11"
        fill="currentColor"
        d="M 3714.40,4043.92
           C 3708.57,4046.42 3698.57,4053.08 3692.32,4059.33
             3656.07,4093.50 3661.90,4140.58 3704.40,4161.83
             3720.24,4169.75 3721.49,4171.42 3717.74,4181.00
             3711.49,4197.67 3713.15,4225.17 3721.07,4238.92
             3730.65,4255.17 3755.24,4268.50 3775.66,4268.50
             3808.57,4268.50 3845.66,4238.92 3858.16,4203.50
             3863.58,4187.67 3863.99,4187.25 3881.91,4188.50
             3899.83,4189.75 3900.66,4189.75 3905.66,4173.92
             3908.58,4165.17 3911.50,4156.00 3912.75,4153.50
             3914.00,4150.58 3906.50,4148.08 3893.16,4146.42
             3881.49,4144.75 3871.08,4143.08 3870.24,4142.67
             3868.99,4141.42 3867.74,4134.75 3862.33,4102.67
             3860.66,4093.08 3858.58,4085.17 3857.74,4085.17
             3856.49,4085.17 3847.33,4087.25 3836.91,4089.75
             3816.49,4095.17 3816.91,4092.67 3825.66,4130.58
             3828.16,4140.58 3827.74,4140.58 3808.16,4138.08
             3796.91,4136.42 3787.32,4134.33 3786.07,4133.08
             3785.24,4132.25 3786.49,4125.58 3788.99,4118.08
             3806.49,4067.67 3763.15,4024.75 3714.40,4043.92 Z
           M 3753.57,4094.75
           C 3759.40,4111.00 3748.99,4129.33 3735.24,4127.67
             3714.40,4125.58 3704.82,4107.25 3714.82,4088.92
             3718.15,4082.25 3722.74,4081.00 3734.40,4081.83
             3746.90,4082.67 3750.24,4085.17 3753.57,4094.75 Z
           M 3807.32,4179.33
           C 3826.91,4182.67 3827.33,4189.75 3808.57,4208.50
             3792.32,4224.75 3782.32,4226.00 3766.90,4213.92
             3756.49,4205.58 3751.90,4186.42 3758.99,4179.75
             3762.32,4176.00 3786.49,4176.00 3807.32,4179.33 Z" />
  <path id="Imported Path #10"
        fill="currentColor"
        d="M 1402.19,4158.08
           C 1396.77,4168.50 1393.02,4177.67 1393.85,4178.50
             1394.69,4178.92 1407.19,4186.42 1421.36,4195.17
             1421.36,4195.17 1447.19,4210.58 1447.19,4210.58
             1447.19,4210.58 1419.69,4255.17 1419.69,4255.17
             1373.85,4328.92 1355.93,4358.92 1355.93,4361.42
             1355.93,4362.67 1364.69,4368.50 1375.10,4374.75
             1391.35,4384.33 1395.10,4385.17 1399.69,4380.58
             1402.60,4377.25 1423.02,4344.75 1445.52,4308.08
             1468.02,4271.42 1486.78,4240.58 1487.61,4239.75
             1488.44,4238.92 1502.19,4245.58 1518.44,4255.17
             1518.44,4255.17 1547.61,4271.83 1547.61,4271.83
             1547.61,4271.83 1558.86,4253.08 1558.86,4253.08
             1567.61,4237.67 1568.86,4233.50 1563.86,4231.00
             1560.53,4228.92 1526.36,4207.67 1487.61,4183.50
             1448.86,4159.33 1415.94,4139.33 1414.69,4139.33
             1413.44,4139.33 1407.60,4147.67 1402.19,4158.08 Z" />
  <path id="Imported Path #9"
        fill="currentColor"
        d="M 3421.47,4243.92
           C 3421.47,4243.92 3401.88,4256.00 3401.88,4256.00
             3401.88,4256.00 3410.22,4272.25 3410.22,4272.25
             3414.80,4281.42 3423.97,4298.50 3431.05,4310.17
             3438.14,4322.25 3453.14,4348.92 3464.39,4370.17
             3475.64,4391.00 3490.22,4417.67 3496.47,4429.33
             3496.47,4429.33 3508.14,4450.58 3508.14,4450.58
             3508.14,4450.58 3572.73,4413.50 3572.73,4413.50
             3608.15,4393.08 3640.23,4374.75 3643.56,4372.67
             3648.98,4369.75 3648.56,4366.42 3639.40,4350.17
             3628.56,4330.17 3626.90,4328.50 3620.65,4334.75
             3614.40,4340.17 3530.64,4386.00 3528.97,4384.33
             3528.56,4383.92 3509.39,4350.17 3487.31,4310.17
             3464.80,4270.17 3445.22,4236.00 3443.97,4234.33
             3442.72,4232.67 3432.72,4236.83 3421.47,4243.92 Z" />
  <path id="Imported Path #8"
        fill="currentColor"
        d="M 1549.70,4349.75
           C 1522.61,4403.92 1501.36,4448.50 1502.19,4448.92
             1510.11,4453.50 1544.70,4468.50 1545.53,4467.67
             1545.95,4466.83 1553.45,4452.67 1561.78,4436.00
             1561.78,4436.00 1576.78,4406.00 1576.78,4406.00
             1576.78,4406.00 1592.20,4412.25 1592.20,4412.25
             1611.78,4420.58 1612.62,4422.25 1615.95,4454.33
             1620.95,4504.75 1621.37,4505.17 1648.45,4518.92
             1662.20,4526.00 1673.87,4531.00 1674.70,4530.17
             1675.12,4529.33 1672.20,4509.33 1668.45,4485.17
             1664.29,4461.00 1661.37,4441.42 1661.79,4441.00
             1661.79,4441.00 1673.45,4437.25 1687.20,4432.67
             1706.79,4426.42 1714.71,4421.42 1725.12,4407.67
             1750.12,4374.33 1745.12,4333.08 1713.45,4308.92
             1701.79,4299.75 1605.95,4251.83 1600.12,4251.83
             1598.87,4251.83 1576.36,4296.00 1549.70,4349.75 Z
           M 1648.87,4321.00
           C 1679.29,4336.42 1689.29,4346.42 1689.29,4362.67
             1689.29,4378.08 1673.87,4393.50 1658.45,4393.50
             1649.70,4393.50 1597.62,4370.58 1597.62,4366.83
             1597.62,4363.50 1624.28,4310.17 1625.53,4310.17
             1626.37,4310.17 1636.78,4315.17 1648.87,4321.00 Z" />
  <path id="Imported Path #7"
        fill="currentColor"
        d="M 3267.71,4316.00
           C 3267.71,4316.00 3248.13,4324.75 3248.13,4324.75
             3248.13,4324.75 3246.04,4446.42 3246.04,4446.42
             3245.21,4513.50 3245.21,4568.50 3246.04,4568.50
             3246.88,4568.50 3257.71,4563.92 3270.63,4558.50
             3270.63,4558.50 3293.54,4548.08 3293.54,4548.08
             3293.54,4548.08 3293.54,4521.42 3293.54,4521.42
             3293.54,4521.42 3293.54,4494.75 3293.54,4494.75
             3293.54,4494.75 3336.88,4476.00 3336.88,4476.00
             3336.88,4476.00 3380.22,4456.83 3380.22,4456.83
             3380.22,4456.83 3398.97,4476.00 3398.97,4476.00
             3398.97,4476.00 3417.72,4494.75 3417.72,4494.75
             3417.72,4494.75 3441.47,4484.75 3441.47,4484.75
             3441.47,4484.75 3465.22,4474.75 3465.22,4474.75
             3465.22,4474.75 3399.38,4411.42 3399.38,4411.42
             3362.72,4376.42 3322.71,4338.50 3310.21,4327.67
             3310.21,4327.67 3287.29,4307.25 3287.29,4307.25
             3287.29,4307.25 3267.71,4316.00 3267.71,4316.00 Z
           M 3332.71,4409.75
           C 3339.38,4416.83 3344.38,4423.08 3343.13,4423.92
             3341.05,4426.00 3293.13,4447.67 3291.04,4447.67
             3290.21,4447.67 3289.38,4430.58 3289.38,4409.75
             3289.38,4409.75 3289.38,4371.83 3289.38,4371.83
             3289.38,4371.83 3305.21,4384.33 3305.21,4384.33
             3313.55,4391.42 3326.05,4402.67 3332.71,4409.75 Z" />
  <path id="Imported Path #6"
        fill="currentColor"
        d="M 1838.05,4399.75
           C 1793.46,4447.67 1712.62,4539.33 1710.95,4543.08
             1710.54,4544.75 1719.71,4549.33 1731.79,4553.08
             1731.79,4553.08 1753.87,4560.17 1753.87,4560.17
             1753.87,4560.17 1772.21,4541.42 1772.21,4541.42
             1772.21,4541.42 1790.13,4522.25 1790.13,4522.25
             1790.13,4522.25 1833.05,4537.67 1833.05,4537.67
             1875.13,4553.08 1875.96,4553.50 1878.46,4568.08
             1879.71,4576.42 1880.96,4588.08 1880.96,4593.92
             1880.96,4603.50 1884.30,4606.42 1903.88,4614.33
             1916.80,4619.75 1928.05,4622.67 1929.30,4621.42
             1932.22,4618.92 1915.13,4408.92 1910.97,4391.83
             1908.47,4382.67 1903.47,4378.08 1888.88,4372.67
             1888.88,4372.67 1870.13,4365.17 1870.13,4365.17
             1870.13,4365.17 1838.05,4399.75 1838.05,4399.75 Z
           M 1873.46,4467.25
           C 1874.30,4487.67 1874.71,4504.75 1873.88,4505.58
             1872.63,4507.25 1827.63,4490.58 1823.04,4486.83
             1820.96,4485.17 1865.55,4431.42 1868.88,4431.42
             1870.55,4431.00 1872.63,4447.25 1873.46,4467.25 Z" />
  <path id="Imported Path #5"
        fill="currentColor"
        d="M 3113.53,4380.17
           C 3101.03,4384.33 3093.53,4388.92 3093.53,4393.08
             3093.53,4396.42 3101.03,4424.33 3110.62,4455.17
             3119.78,4485.58 3126.87,4511.83 3125.62,4512.67
             3124.37,4513.92 3108.12,4503.08 3088.95,4488.50
             3069.78,4473.92 3040.20,4451.83 3023.53,4439.75
             3023.53,4439.75 2993.11,4417.25 2993.11,4417.25
             2993.11,4417.25 2970.19,4422.67 2970.19,4422.67
             2957.69,4425.58 2947.69,4429.33 2947.69,4430.58
             2947.69,4433.92 3006.86,4636.83 3008.11,4638.50
             3008.95,4639.33 3019.78,4636.83 3032.70,4633.08
             3053.95,4626.83 3056.03,4625.17 3053.53,4617.25
             3036.03,4562.25 3018.53,4500.17 3020.20,4498.92
             3021.45,4497.67 3047.28,4515.17 3077.70,4538.08
             3166.45,4603.92 3155.20,4598.08 3180.20,4591.00
             3192.29,4587.25 3201.04,4583.08 3200.21,4581.83
             3199.37,4580.17 3185.21,4533.92 3168.54,4478.92
             3151.87,4423.92 3137.29,4377.67 3135.62,4376.42
             3134.37,4375.17 3124.37,4376.83 3113.53,4380.17 Z" />
  <path id="Imported Path #4"
        fill="currentColor"
        d="M 2025.14,4425.58
           C 2024.31,4429.75 2013.47,4477.67 2000.97,4532.25
             1983.05,4613.08 1980.14,4632.25 1984.72,4634.75
             1995.14,4641.42 2072.64,4656.00 2096.81,4656.00
             2139.31,4656.00 2179.73,4628.92 2196.82,4589.75
             2205.15,4569.75 2204.73,4525.17 2195.98,4503.92
             2187.23,4483.50 2167.23,4462.25 2147.23,4451.83
             2138.90,4447.25 2113.48,4439.33 2090.98,4433.92
             2024.31,4417.25 2027.64,4417.67 2025.14,4425.58 Z
           M 2105.98,4481.42
           C 2124.31,4486.42 2131.81,4492.25 2143.06,4510.17
             2160.98,4539.33 2149.31,4590.17 2121.81,4604.33
             2105.14,4613.08 2050.14,4610.17 2040.14,4600.17
             2038.06,4597.67 2058.89,4483.08 2063.06,4475.58
             2065.14,4472.25 2078.06,4473.92 2105.98,4481.42 Z" />
  <path id="Imported Path #3"
        fill="currentColor"
        d="M 2779.77,4457.67
           C 2751.85,4465.17 2727.26,4483.92 2712.26,4508.08
             2701.43,4525.17 2699.76,4533.08 2698.51,4561.83
             2697.26,4592.25 2698.09,4597.67 2708.93,4618.50
             2745.60,4688.50 2846.44,4701.00 2901.02,4641.83
             2933.11,4606.83 2940.19,4556.00 2918.52,4512.67
             2894.36,4465.17 2835.60,4441.83 2779.77,4457.67 Z
           M 2847.69,4506.83
           C 2871.85,4523.50 2878.94,4536.83 2878.94,4566.00
             2878.94,4588.50 2877.27,4594.33 2866.85,4607.67
             2845.60,4635.58 2816.85,4641.83 2785.18,4625.58
             2737.26,4601.83 2735.60,4527.67 2781.85,4504.75
             2802.27,4494.75 2831.02,4495.58 2847.69,4506.83 Z" />
  <path id="Imported Path #2"
        fill="currentColor"
        d="M 2256.40,4516.83
           C 2253.49,4546.42 2247.65,4595.58 2243.90,4626.00
             2238.90,4664.75 2238.07,4682.25 2240.98,4683.08
             2243.49,4683.92 2254.32,4685.58 2265.15,4687.25
             2283.49,4689.75 2285.15,4688.92 2286.82,4680.17
             2290.99,4661.83 2310.99,4472.25 2309.32,4470.58
             2308.49,4469.75 2297.24,4467.67 2284.74,4466.00
             2284.74,4466.00 2261.82,4463.50 2261.82,4463.50
             2261.82,4463.50 2256.40,4516.83 2256.40,4516.83 Z" />
  <path id="Imported Path #1"
        fill="currentColor"
        d="M 2443.50,4477.25
           C 2417.24,4480.58 2404.74,4486.42 2384.74,4504.75
             2323.91,4559.75 2340.16,4661.00 2415.58,4693.50
             2455.58,4711.00 2502.25,4705.17 2537.25,4678.50
             2537.25,4678.50 2552.25,4667.25 2552.25,4667.25
             2552.25,4667.25 2536.84,4651.42 2536.84,4651.42
             2536.84,4651.42 2521.83,4636.00 2521.83,4636.00
             2521.83,4636.00 2506.83,4646.00 2506.83,4646.00
             2488.08,4658.92 2476.41,4661.83 2455.16,4658.92
             2391.41,4650.58 2377.24,4557.25 2435.16,4527.67
             2458.08,4516.00 2479.33,4517.67 2503.50,4533.50
             2503.50,4533.50 2519.33,4544.33 2519.33,4544.33
             2519.33,4544.33 2535.59,4528.50 2535.59,4528.50
             2535.59,4528.50 2551.84,4512.67 2551.84,4512.67
             2551.84,4512.67 2542.67,4503.08 2542.67,4503.08
             2522.67,4481.83 2483.08,4471.42 2443.50,4477.25 Z" />
  <path id="Imported Path"
        fill="currentColor"
        d="M 2592.25,4479.75
           C 2591.00,4481.83 2592.67,4522.25 2596.01,4570.58
             2598.92,4618.50 2601.42,4667.25 2601.42,4678.08
             2601.42,4678.08 2601.84,4698.50 2601.84,4698.50
             2601.84,4698.50 2626.01,4696.83 2626.01,4696.83
             2626.01,4696.83 2649.76,4695.58 2649.76,4695.58
             2649.76,4695.58 2649.76,4666.42 2649.76,4666.42
             2650.17,4650.17 2647.67,4607.25 2645.17,4570.58
             2642.26,4533.92 2639.76,4497.67 2639.76,4490.17
             2639.76,4490.17 2639.34,4476.83 2639.34,4476.83
             2639.34,4476.83 2616.84,4476.83 2616.84,4476.83
             2604.34,4476.83 2593.09,4478.08 2592.25,4479.75 Z" />
</svg>